PathFileType	4	(X/Y/Z)	s08c0402.trc
DataRate	CameraRate	NumFrames	NumMarkers	Units	OrigDataRate	OrigDataStartFrame	OrigNumFrames
200	200	4	50	mm	200	750	2000
Frame#	Time	racr			lacr			c7			jug			rlel			rdr			llel			ldr			s2			lic			ric			lasi			rasi			rpsi			lpsi			rgt			lgt			rth1			rth2			rth3			rth4			rlfc			rmfc			rsh1			rsh2			rsh3			rsh4			rlmal			rmmal			rcal			rtoe			rmt5			lth1			lth2			lth4			lth3			llfc			lmfc			llmal			lmmal			lcal			lmt5			lsh1			lsh2			lsh3			lsh4			ltoe			SBIKE			LBIKE			RBIKE			
		X1	Y1	Z1	X2	Y2	Z2	X3	Y3	Z3	X4	Y4	Z4	X5	Y5	Z5	X6	Y6	Z6	X7	Y7	Z7	X8	Y8	Z8	X9	Y9	Z9	X10	Y10	Z10	X11	Y11	Z11	X12	Y12	Z12	X13	Y13	Z13	X14	Y14	Z14	X15	Y15	Z15	X16	Y16	Z16	X17	Y17	Z17	X18	Y18	Z18	X19	Y19	Z19	X20	Y20	Z20	X21	Y21	Z21	X22	Y22	Z22	X23	Y23	Z23	X24	Y24	Z24	X25	Y25	Z25	X26	Y26	Z26	X27	Y27	Z27	X28	Y28	Z28	X29	Y29	Z29	X30	Y30	Z30	X31	Y31	Z31	X32	Y32	Z32	X33	Y33	Z33	X34	Y34	Z34	X35	Y35	Z35	X36	Y36	Z36	X37	Y37	Z37	X38	Y38	Z38	X39	Y39	Z39	X40	Y40	Z40	X41	Y41	Z41	X42	Y42	Z42	X43	Y43	Z43	X44	Y44	Z44	X45	Y45	Z45	X46	Y46	Z46	X47	Y47	Z47	X48	Y48	Z48	X49	Y49	Z49	X50	Y50	Z50	
750	3.7500	837.876340	1412.715534	-175.999108	823.194149	1316.824246	-503.271519	813.287567	1433.054400	-345.394600	776.064671	1278.397003	-310.328064	736.602854	1211.896187	6.093903	783.326892	935.140403	-56.085800	610.321218	1097.520574	-551.687588	763.556387	927.525567	-430.401077	251.565644	1263.401077	-213.370691	381.571543	1227.336043	-385.475298	441.759224	1241.071580	-72.537895	414.024327	1196.191439	-341.049783	437.123948	1167.350701	-100.765595	301.270746	1294.341926	-164.207705	282.058016	1304.705309	-253.938283	316.013170	1134.626036	-35.652801	343.192610	1152.402500	-409.242696	335.176549	964.560981	-25.002979	361.357823	879.470114	-25.464051	343.910625	794.943895	-35.122891	397.662220	881.760245	-28.797975	351.518282	672.755673	-46.458167	339.663512	663.782483	-157.189109	260.707858	573.859926	-16.804340	242.824126	487.328717	-35.963864	185.363028	424.017013	-44.365878	273.669391	477.196925	-60.788129	125.299949	319.094237	-54.110340	199.510306	346.886888	-135.593960	54.301958	340.311605	-104.881033	276.061336	141.760126	-105.224411	187.576807	173.306483	-39.080936	428.803359	1056.679018	-415.226672	507.164844	1017.761564	-416.398844	531.245906	1044.404597	-407.440736	555.638387	943.354958	-419.185066	626.256957	836.293259	-398.186376	625.536034	809.627025	-289.432220	320.675647	556.161951	-399.213458	348.253376	562.220293	-311.185624	239.609007	554.632750	-360.507554	417.943371	438.007035	-426.658508	547.161344	741.564641	-419.882216	495.632607	674.714678	-401.882675	417.052587	634.860979	-405.026179	510.646182	661.237357	-366.613983	504.823095	442.764250	-359.763936	-145.768364	939.018422	-228.909250	10.604521	79.988830	-427.275696	10.495461	80.098676	-28.768507	
751	3.7550	837.747171	1411.277846	-176.443304	824.266982	1313.499970	-502.977384	814.177230	1430.918703	-346.627377	775.665289	1276.735627	-310.952920	735.150165	1212.358367	6.796104	782.757512	935.278609	-55.902318	609.581393	1096.523037	-552.947740	762.875762	927.408306	-430.733576	251.730430	1265.120617	-214.489730	381.857838	1225.390349	-386.439343	440.936533	1244.045487	-72.447319	413.600976	1195.523818	-341.601632	436.896001	1170.492502	-100.932574	300.840785	1296.224544	-165.177523	282.068319	1306.287352	-255.586908	316.855459	1136.921606	-35.036483	341.867103	1152.155492	-409.348852	341.147060	965.223902	-25.032413	369.831473	881.063880	-25.743576	354.736045	796.012885	-34.714575	405.999446	884.369354	-29.831419	364.725808	674.023035	-45.167871	351.860324	665.709406	-155.722364	270.421389	578.232219	-15.762965	249.207799	492.698313	-35.448511	189.385641	431.604645	-43.848668	279.597912	481.310703	-60.509180	125.618997	328.400194	-54.430315	195.895810	352.132033	-135.822361	55.238859	353.165771	-104.992572	267.509699	144.459542	-105.096399	180.702282	180.450101	-39.030717	426.587221	1055.095852	-416.242802	504.382358	1015.249047	-417.668020	528.626859	1041.679304	-409.835480	551.848917	939.915708	-419.970408	621.755259	832.344173	-398.685291	621.106808	805.621302	-291.636792	323.167886	545.547454	-400.287806	350.933245	551.959911	-310.411347	242.517939	541.078027	-360.079962	424.549751	430.671116	-427.015880	544.198183	734.997498	-420.020071	494.520946	667.047535	-401.648182	417.195793	624.982455	-404.705784	509.377509	653.441252	-363.879142	511.503689	438.756720	-360.947399	-145.697806	939.064230	-229.230996	10.577544	79.972221	-427.307750	10.462823	80.401034	-28.598391	
752	3.7600	837.748879	1410.471037	-176.435515	825.264984	1310.369329	-502.480076	814.971401	1429.031422	-347.697384	775.533978	1275.324400	-311.075037	733.771620	1213.011787	7.668683	781.972024	935.122372	-55.963432	609.087934	1095.506859	-553.954302	762.148719	927.290512	-430.689413	251.838779	1266.621478	-215.826357	382.227582	1223.436292	-387.484655	440.242184	1246.819674	-71.933141	413.200667	1194.816930	-342.224347	436.834008	1173.344401	-101.085639	300.350022	1297.704926	-166.336290	282.186997	1307.608696	-257.368617	318.014695	1139.016359	-34.458847	340.704658	1152.092666	-409.707163	347.769562	965.951565	-25.388385	379.124344	882.770081	-26.278604	366.462145	797.244232	-34.199720	415.033585	887.018782	-31.467257	378.284251	675.570137	-44.051046	364.568795	667.976721	-154.230723	281.065703	582.628502	-14.614896	256.731603	498.122267	-34.935753	194.949557	439.070933	-43.191445	286.758543	485.770396	-60.161613	127.437288	338.119749	-53.775980	192.736898	357.653266	-136.101186	58.289030	366.405072	-105.044384	259.082194	146.891152	-104.991665	174.508507	187.660587	-38.844166	424.437734	1053.775660	-417.180351	501.659237	1012.821735	-419.087112	526.299581	1039.064580	-411.583015	547.751202	936.626491	-421.811087	616.705174	828.482146	-400.162880	616.224140	801.920811	-293.460588	326.473045	533.967669	-398.683047	353.879189	541.513603	-310.119555	245.889080	527.731136	-359.864172	431.224421	423.232693	-427.213570	540.639646	729.020710	-420.849340	493.347581	659.400295	-401.456782	417.446842	614.945356	-404.161054	509.489591	650.033656	-369.028933	517.920019	433.676882	-360.894636	-145.579801	939.171138	-229.583552	10.560130	79.948914	-427.342013	10.476999	80.449868	-28.660277	
753	3.7650	837.757926	1409.739381	-175.969603	826.242544	1307.405598	-501.741162	815.606075	1427.429508	-348.433259	775.492498	1274.098248	-311.057996	732.348544	1213.718733	8.372436	781.116101	934.745398	-56.240578	608.622896	1094.669518	-555.085389	761.511560	927.121592	-430.518103	251.803461	1267.907071	-217.256533	382.678284	1221.479180	-388.605260	439.528649	1249.257095	-72.166171	412.826226	1194.063619	-342.913302	436.846008	1176.023069	-101.602470	300.344890	1299.113970	-168.124980	283.788979	1308.112943	-259.520996	319.296464	1140.585215	-34.445531	339.494474	1152.121521	-410.189853	355.208444	967.109308	-25.354266	389.055164	884.642724	-27.082339	378.545641	798.754851	-33.793617	424.570864	889.876538	-33.732888	392.055649	677.277620	-43.086106	377.518877	670.242788	-153.210519	292.414228	587.047976	-13.579624	265.276004	503.541115	-34.445757	201.706615	446.428631	-42.438270	294.721387	490.517333	-59.997182	130.613432	347.706689	-52.935918	190.064604	363.441704	-136.430713	61.815695	381.241148	-103.727287	250.949977	149.325820	-104.747351	169.057645	194.847782	-38.612892	422.395642	1052.608999	-418.308858	499.023766	1010.667222	-420.209081	523.958507	1036.609521	-413.193381	544.102043	933.833992	-423.006541	611.172069	824.776943	-402.137968	611.088426	798.555367	-294.869424	329.614711	523.046933	-398.178932	357.165089	531.367903	-309.845533	249.512641	515.004399	-358.900885	437.180529	415.332753	-427.429851	537.244794	722.828366	-421.882824	492.149396	652.038275	-401.533898	417.958560	605.072925	-404.072988	508.410401	642.598349	-367.410764	523.863025	427.467975	-360.980506	-145.451656	939.258718	-229.802817	10.567527	79.963106	-427.364504	10.490741	80.564222	-28.658282	
